<?xml version="1.0" encoding="UTF-8" standalone="no"?>
<!DOCTYPE svg PUBLIC "-//W3C//DTD SVG 1.1//EN"
 "http://www.w3.org/Graphics/SVG/1.1/DTD/svg11.dtd">
<!-- Generated by graphviz version 2.43.0 (0)
 -->
<!-- Title: %3 Pages: 1 -->
<svg width="1358pt" height="238pt"
 viewBox="0.00 0.00 1357.50 237.74" xmlns="http://www.w3.org/2000/svg" xmlns:xlink="http://www.w3.org/1999/xlink">
<g id="graph0" class="graph" transform="scale(1 1) rotate(0) translate(36 201.74)">
<title>%3</title>
<polygon fill="dimgray" stroke="transparent" points="-36,36 -36,-201.74 1321.5,-201.74 1321.5,36 -36,36"/>
<text text-anchor="middle" x="642.75" y="-150.54" font-family="Helvetica,sans-Serif" font-size="14.00">Sweep&#39;s Plan &amp; Progress</text>
<!-- start -->
<g id="node1" class="node">
<title>start</title>
</g>
<!-- d61404bd&#45;7fb6&#45;4efe&#45;8915&#45;cbad5b78e811 -->
<g id="node3" class="node">
<title>d61404bd&#45;7fb6&#45;4efe&#45;8915&#45;cbad5b78e811</title>
<ellipse fill="#0ee832" stroke="black" cx="257" cy="-99.87" rx="173.48" ry="26.74"/>
<text text-anchor="middle" x="257" y="-103.67" font-family="Helvetica,sans-Serif" font-size="14.00">✓ Modify</text>
<text text-anchor="middle" x="257" y="-88.67" font-family="Helvetica,sans-Serif" font-size="14.00">.github/workflows/buf&#45;push.yaml</text>
</g>
<!-- start&#45;&gt;d61404bd&#45;7fb6&#45;4efe&#45;8915&#45;cbad5b78e811 -->
<g id="edge6" class="edge">
<title>start&#45;&gt;d61404bd&#45;7fb6&#45;4efe&#45;8915&#45;cbad5b78e811</title>
<path fill="none" stroke="black" d="M32.65,-99.87C35.96,-99.87 51.74,-99.87 73.52,-99.87"/>
<polygon fill="black" stroke="black" points="73.56,-103.37 83.56,-99.87 73.56,-96.37 73.56,-103.37"/>
<text text-anchor="middle" x="58.13" y="-106.67" font-family="Helvetica,sans-Serif" font-size="14.00">Start</text>
</g>
<!-- end -->
<g id="node2" class="node">
<title>end</title>
</g>
<!-- f523780a&#45;f7ec&#45;46f3&#45;905b&#45;6404f7f6ddbe -->
<g id="node4" class="node">
<title>f523780a&#45;f7ec&#45;46f3&#45;905b&#45;6404f7f6ddbe</title>
<ellipse fill="#0ee832" stroke="black" cx="667" cy="-99.87" rx="161.85" ry="26.74"/>
<text text-anchor="middle" x="667" y="-103.67" font-family="Helvetica,sans-Serif" font-size="14.00">✓ Modify</text>
<text text-anchor="middle" x="667" y="-88.67" font-family="Helvetica,sans-Serif" font-size="14.00">.github/workflows/nightly.yaml</text>
</g>
<!-- d61404bd&#45;7fb6&#45;4efe&#45;8915&#45;cbad5b78e811&#45;&gt;f523780a&#45;f7ec&#45;46f3&#45;905b&#45;6404f7f6ddbe -->
<g id="edge2" class="edge">
<title>d61404bd&#45;7fb6&#45;4efe&#45;8915&#45;cbad5b78e811&#45;&gt;f523780a&#45;f7ec&#45;46f3&#45;905b&#45;6404f7f6ddbe</title>
<path fill="none" stroke="black" d="M430.37,-99.87C451.78,-99.87 473.19,-99.87 494.61,-99.87"/>
<polygon fill="black" stroke="black" points="494.78,-103.37 504.78,-99.87 494.78,-96.37 494.78,-103.37"/>
</g>
<!-- cadf8d01&#45;1c75&#45;4a60&#45;b93e&#45;8242199b6e1d -->
<g id="node6" class="node">
<title>cadf8d01&#45;1c75&#45;4a60&#45;b93e&#45;8242199b6e1d</title>
<polygon fill="#0ee832" stroke="black" points="438,-36 0,-36 0,0 438,0 438,-36"/>
<text text-anchor="middle" x="219" y="-14.3" font-family="Helvetica,sans-Serif" font-size="14.00">✓ Run GitHub Actions for `.github/workflows/buf&#45;push.yaml`</text>
</g>
<!-- d61404bd&#45;7fb6&#45;4efe&#45;8915&#45;cbad5b78e811&#45;&gt;cadf8d01&#45;1c75&#45;4a60&#45;b93e&#45;8242199b6e1d -->
<g id="edge1" class="edge">
<title>d61404bd&#45;7fb6&#45;4efe&#45;8915&#45;cbad5b78e811&#45;&gt;cadf8d01&#45;1c75&#45;4a60&#45;b93e&#45;8242199b6e1d</title>
<path fill="none" stroke="black" stroke-dasharray="5,2" d="M244.56,-72.72C240.36,-63.9 235.68,-54.05 231.48,-45.23"/>
<polygon fill="black" stroke="black" points="234.61,-43.67 227.16,-36.15 228.29,-46.68 234.61,-43.67"/>
</g>
<!-- b35c1b9c&#45;bc0b&#45;4ecb&#45;b144&#45;04f8b95219ee -->
<g id="node5" class="node">
<title>b35c1b9c&#45;bc0b&#45;4ecb&#45;b144&#45;04f8b95219ee</title>
<ellipse fill="#0ee832" stroke="black" cx="1048" cy="-99.87" rx="139.1" ry="26.74"/>
<text text-anchor="middle" x="1048" y="-103.67" font-family="Helvetica,sans-Serif" font-size="14.00">✓ Modify</text>
<text text-anchor="middle" x="1048" y="-88.67" font-family="Helvetica,sans-Serif" font-size="14.00">.github/workflows/pr.yaml</text>
</g>
<!-- f523780a&#45;f7ec&#45;46f3&#45;905b&#45;6404f7f6ddbe&#45;&gt;b35c1b9c&#45;bc0b&#45;4ecb&#45;b144&#45;04f8b95219ee -->
<g id="edge4" class="edge">
<title>f523780a&#45;f7ec&#45;46f3&#45;905b&#45;6404f7f6ddbe&#45;&gt;b35c1b9c&#45;bc0b&#45;4ecb&#45;b144&#45;04f8b95219ee</title>
<path fill="none" stroke="black" d="M829.22,-99.87C852.18,-99.87 875.13,-99.87 898.08,-99.87"/>
<polygon fill="black" stroke="black" points="898.27,-103.37 908.27,-99.87 898.27,-96.37 898.27,-103.37"/>
</g>
<!-- 5d678f93&#45;7e58&#45;4c3d&#45;8a84&#45;39a1ae747042 -->
<g id="node7" class="node">
<title>5d678f93&#45;7e58&#45;4c3d&#45;8a84&#45;39a1ae747042</title>
<polygon fill="#0ee832" stroke="black" points="878,-36 456,-36 456,0 878,0 878,-36"/>
<text text-anchor="middle" x="667" y="-14.3" font-family="Helvetica,sans-Serif" font-size="14.00">✓ Run GitHub Actions for `.github/workflows/nightly.yaml`</text>
</g>
<!-- f523780a&#45;f7ec&#45;46f3&#45;905b&#45;6404f7f6ddbe&#45;&gt;5d678f93&#45;7e58&#45;4c3d&#45;8a84&#45;39a1ae747042 -->
<g id="edge3" class="edge">
<title>f523780a&#45;f7ec&#45;46f3&#45;905b&#45;6404f7f6ddbe&#45;&gt;5d678f93&#45;7e58&#45;4c3d&#45;8a84&#45;39a1ae747042</title>
<path fill="none" stroke="black" stroke-dasharray="5,2" d="M667,-72.72C667,-64.27 667,-54.89 667,-46.36"/>
<polygon fill="black" stroke="black" points="670.5,-46.15 667,-36.15 663.5,-46.15 670.5,-46.15"/>
</g>
<!-- b35c1b9c&#45;bc0b&#45;4ecb&#45;b144&#45;04f8b95219ee&#45;&gt;end -->
<g id="edge7" class="edge">
<title>b35c1b9c&#45;bc0b&#45;4ecb&#45;b144&#45;04f8b95219ee&#45;&gt;end</title>
<path fill="none" stroke="black" d="M1187.49,-99.87C1206.95,-99.87 1223.82,-99.87 1234.16,-99.87"/>
<polygon fill="black" stroke="black" points="1234.35,-103.37 1244.35,-99.87 1234.35,-96.37 1234.35,-103.37"/>
<text text-anchor="middle" x="1215.9" y="-106.67" font-family="Helvetica,sans-Serif" font-size="14.00">Finish</text>
</g>
<!-- c885f468&#45;4fd5&#45;401e&#45;955a&#45;92119871b3de -->
<g id="node8" class="node">
<title>c885f468&#45;4fd5&#45;401e&#45;955a&#45;92119871b3de</title>
<polygon fill="#0ee832" stroke="black" points="1285.5,-36 896.5,-36 896.5,0 1285.5,0 1285.5,-36"/>
<text text-anchor="middle" x="1091" y="-14.3" font-family="Helvetica,sans-Serif" font-size="14.00">✓ Run GitHub Actions for `.github/workflows/pr.yaml`</text>
</g>
<!-- b35c1b9c&#45;bc0b&#45;4ecb&#45;b144&#45;04f8b95219ee&#45;&gt;c885f468&#45;4fd5&#45;401e&#45;955a&#45;92119871b3de -->
<g id="edge5" class="edge">
<title>b35c1b9c&#45;bc0b&#45;4ecb&#45;b144&#45;04f8b95219ee&#45;&gt;c885f468&#45;4fd5&#45;401e&#45;955a&#45;92119871b3de</title>
<path fill="none" stroke="black" stroke-dasharray="5,2" d="M1062.08,-72.72C1066.83,-63.9 1072.13,-54.05 1076.88,-45.23"/>
<polygon fill="black" stroke="black" points="1080.11,-46.61 1081.77,-36.15 1073.95,-43.29 1080.11,-46.61"/>
</g>
</g>
</svg>
