<?xml version="1.0" encoding="UTF-8" standalone="no"?>
<!DOCTYPE svg PUBLIC "-//W3C//DTD SVG 1.1//EN"
 "http://www.w3.org/Graphics/SVG/1.1/DTD/svg11.dtd">
<!-- Generated by graphviz version 2.43.0 (0)
 -->
<!-- Title: %3 Pages: 1 -->
<svg width="1354pt" height="238pt"
 viewBox="0.00 0.00 1353.50 237.74" xmlns="http://www.w3.org/2000/svg" xmlns:xlink="http://www.w3.org/1999/xlink">
<g id="graph0" class="graph" transform="scale(1 1) rotate(0) translate(36 201.74)">
<title>%3</title>
<polygon fill="dimgray" stroke="transparent" points="-36,36 -36,-201.74 1317.5,-201.74 1317.5,36 -36,36"/>
<text text-anchor="middle" x="640.75" y="-150.54" font-family="Helvetica,sans-Serif" font-size="14.00">Sweep&#39;s Plan &amp; Progress</text>
<!-- start -->
<g id="node1" class="node">
<title>start</title>
</g>
<!-- d61404bd&#45;7fb6&#45;4efe&#45;8915&#45;cbad5b78e811 -->
<g id="node3" class="node">
<title>d61404bd&#45;7fb6&#45;4efe&#45;8915&#45;cbad5b78e811</title>
<ellipse fill="yellow" stroke="black" cx="256.5" cy="-99.87" rx="173.48" ry="26.74"/>
<text text-anchor="middle" x="256.5" y="-103.67" font-family="Helvetica,sans-Serif" font-size="14.00">⋯ Modify</text>
<text text-anchor="middle" x="256.5" y="-88.67" font-family="Helvetica,sans-Serif" font-size="14.00">.github/workflows/buf&#45;push.yaml</text>
</g>
<!-- start&#45;&gt;d61404bd&#45;7fb6&#45;4efe&#45;8915&#45;cbad5b78e811 -->
<g id="edge6" class="edge">
<title>start&#45;&gt;d61404bd&#45;7fb6&#45;4efe&#45;8915&#45;cbad5b78e811</title>
<path fill="none" stroke="black" d="M32.15,-99.87C35.46,-99.87 51.24,-99.87 73.02,-99.87"/>
<polygon fill="black" stroke="black" points="73.06,-103.37 83.06,-99.87 73.06,-96.37 73.06,-103.37"/>
<text text-anchor="middle" x="57.63" y="-106.67" font-family="Helvetica,sans-Serif" font-size="14.00">Start</text>
</g>
<!-- end -->
<g id="node2" class="node">
<title>end</title>
</g>
<!-- f523780a&#45;f7ec&#45;46f3&#45;905b&#45;6404f7f6ddbe -->
<g id="node4" class="node">
<title>f523780a&#45;f7ec&#45;46f3&#45;905b&#45;6404f7f6ddbe</title>
<ellipse fill="white" stroke="black" cx="665.5" cy="-99.87" rx="161.85" ry="26.74"/>
<text text-anchor="middle" x="665.5" y="-103.67" font-family="Helvetica,sans-Serif" font-size="14.00">▶ Modify</text>
<text text-anchor="middle" x="665.5" y="-88.67" font-family="Helvetica,sans-Serif" font-size="14.00">.github/workflows/nightly.yaml</text>
</g>
<!-- d61404bd&#45;7fb6&#45;4efe&#45;8915&#45;cbad5b78e811&#45;&gt;f523780a&#45;f7ec&#45;46f3&#45;905b&#45;6404f7f6ddbe -->
<g id="edge2" class="edge">
<title>d61404bd&#45;7fb6&#45;4efe&#45;8915&#45;cbad5b78e811&#45;&gt;f523780a&#45;f7ec&#45;46f3&#45;905b&#45;6404f7f6ddbe</title>
<path fill="none" stroke="black" d="M429.85,-99.87C451.04,-99.87 472.23,-99.87 493.42,-99.87"/>
<polygon fill="black" stroke="black" points="493.49,-103.37 503.49,-99.87 493.49,-96.37 493.49,-103.37"/>
</g>
<!-- cadf8d01&#45;1c75&#45;4a60&#45;b93e&#45;8242199b6e1d -->
<g id="node6" class="node">
<title>cadf8d01&#45;1c75&#45;4a60&#45;b93e&#45;8242199b6e1d</title>
<polygon fill="white" stroke="black" points="437,-36 0,-36 0,0 437,0 437,-36"/>
<text text-anchor="middle" x="218.5" y="-14.3" font-family="Helvetica,sans-Serif" font-size="14.00">▶ Run GitHub Actions for `.github/workflows/buf&#45;push.yaml`</text>
</g>
<!-- d61404bd&#45;7fb6&#45;4efe&#45;8915&#45;cbad5b78e811&#45;&gt;cadf8d01&#45;1c75&#45;4a60&#45;b93e&#45;8242199b6e1d -->
<g id="edge1" class="edge">
<title>d61404bd&#45;7fb6&#45;4efe&#45;8915&#45;cbad5b78e811&#45;&gt;cadf8d01&#45;1c75&#45;4a60&#45;b93e&#45;8242199b6e1d</title>
<path fill="none" stroke="black" stroke-dasharray="5,2" d="M244.06,-72.72C239.86,-63.9 235.18,-54.05 230.98,-45.23"/>
<polygon fill="black" stroke="black" points="234.11,-43.67 226.66,-36.15 227.79,-46.68 234.11,-43.67"/>
</g>
<!-- b35c1b9c&#45;bc0b&#45;4ecb&#45;b144&#45;04f8b95219ee -->
<g id="node5" class="node">
<title>b35c1b9c&#45;bc0b&#45;4ecb&#45;b144&#45;04f8b95219ee</title>
<ellipse fill="white" stroke="black" cx="1045.5" cy="-99.87" rx="139.1" ry="26.74"/>
<text text-anchor="middle" x="1045.5" y="-103.67" font-family="Helvetica,sans-Serif" font-size="14.00">▶ Modify</text>
<text text-anchor="middle" x="1045.5" y="-88.67" font-family="Helvetica,sans-Serif" font-size="14.00">.github/workflows/pr.yaml</text>
</g>
<!-- f523780a&#45;f7ec&#45;46f3&#45;905b&#45;6404f7f6ddbe&#45;&gt;b35c1b9c&#45;bc0b&#45;4ecb&#45;b144&#45;04f8b95219ee -->
<g id="edge4" class="edge">
<title>f523780a&#45;f7ec&#45;46f3&#45;905b&#45;6404f7f6ddbe&#45;&gt;b35c1b9c&#45;bc0b&#45;4ecb&#45;b144&#45;04f8b95219ee</title>
<path fill="none" stroke="black" d="M827.67,-99.87C850.4,-99.87 873.13,-99.87 895.86,-99.87"/>
<polygon fill="black" stroke="black" points="895.95,-103.37 905.95,-99.87 895.95,-96.37 895.95,-103.37"/>
</g>
<!-- 5d678f93&#45;7e58&#45;4c3d&#45;8a84&#45;39a1ae747042 -->
<g id="node7" class="node">
<title>5d678f93&#45;7e58&#45;4c3d&#45;8a84&#45;39a1ae747042</title>
<polygon fill="white" stroke="black" points="875.5,-36 455.5,-36 455.5,0 875.5,0 875.5,-36"/>
<text text-anchor="middle" x="665.5" y="-14.3" font-family="Helvetica,sans-Serif" font-size="14.00">▶ Run GitHub Actions for `.github/workflows/nightly.yaml`</text>
</g>
<!-- f523780a&#45;f7ec&#45;46f3&#45;905b&#45;6404f7f6ddbe&#45;&gt;5d678f93&#45;7e58&#45;4c3d&#45;8a84&#45;39a1ae747042 -->
<g id="edge3" class="edge">
<title>f523780a&#45;f7ec&#45;46f3&#45;905b&#45;6404f7f6ddbe&#45;&gt;5d678f93&#45;7e58&#45;4c3d&#45;8a84&#45;39a1ae747042</title>
<path fill="none" stroke="black" stroke-dasharray="5,2" d="M665.5,-72.72C665.5,-64.27 665.5,-54.89 665.5,-46.36"/>
<polygon fill="black" stroke="black" points="669,-46.15 665.5,-36.15 662,-46.15 669,-46.15"/>
</g>
<!-- b35c1b9c&#45;bc0b&#45;4ecb&#45;b144&#45;04f8b95219ee&#45;&gt;end -->
<g id="edge7" class="edge">
<title>b35c1b9c&#45;bc0b&#45;4ecb&#45;b144&#45;04f8b95219ee&#45;&gt;end</title>
<path fill="none" stroke="black" d="M1184.99,-99.87C1204.45,-99.87 1221.32,-99.87 1231.66,-99.87"/>
<polygon fill="black" stroke="black" points="1231.85,-103.37 1241.85,-99.87 1231.85,-96.37 1231.85,-103.37"/>
<text text-anchor="middle" x="1213.4" y="-106.67" font-family="Helvetica,sans-Serif" font-size="14.00">Finish</text>
</g>
<!-- c885f468&#45;4fd5&#45;401e&#45;955a&#45;92119871b3de -->
<g id="node8" class="node">
<title>c885f468&#45;4fd5&#45;401e&#45;955a&#45;92119871b3de</title>
<polygon fill="white" stroke="black" points="1281.5,-36 893.5,-36 893.5,0 1281.5,0 1281.5,-36"/>
<text text-anchor="middle" x="1087.5" y="-14.3" font-family="Helvetica,sans-Serif" font-size="14.00">▶ Run GitHub Actions for `.github/workflows/pr.yaml`</text>
</g>
<!-- b35c1b9c&#45;bc0b&#45;4ecb&#45;b144&#45;04f8b95219ee&#45;&gt;c885f468&#45;4fd5&#45;401e&#45;955a&#45;92119871b3de -->
<g id="edge5" class="edge">
<title>b35c1b9c&#45;bc0b&#45;4ecb&#45;b144&#45;04f8b95219ee&#45;&gt;c885f468&#45;4fd5&#45;401e&#45;955a&#45;92119871b3de</title>
<path fill="none" stroke="black" stroke-dasharray="5,2" d="M1059.25,-72.72C1063.89,-63.9 1069.07,-54.05 1073.71,-45.23"/>
<polygon fill="black" stroke="black" points="1076.93,-46.63 1078.48,-36.15 1070.73,-43.37 1076.93,-46.63"/>
</g>
</g>
</svg>
