<?xml version="1.0" encoding="UTF-8" standalone="no"?>
<!DOCTYPE svg PUBLIC "-//W3C//DTD SVG 1.1//EN"
 "http://www.w3.org/Graphics/SVG/1.1/DTD/svg11.dtd">
<!-- Generated by graphviz version 2.43.0 (0)
 -->
<!-- Title: %3 Pages: 1 -->
<svg width="1358pt" height="238pt"
 viewBox="0.00 0.00 1358.00 237.74" xmlns="http://www.w3.org/2000/svg" xmlns:xlink="http://www.w3.org/1999/xlink">
<g id="graph0" class="graph" transform="scale(1 1) rotate(0) translate(36 201.74)">
<title>%3</title>
<polygon fill="dimgray" stroke="transparent" points="-36,36 -36,-201.74 1322,-201.74 1322,36 -36,36"/>
<text text-anchor="middle" x="643" y="-150.54" font-family="Helvetica,sans-Serif" font-size="14.00">Sweep&#39;s Plan &amp; Progress</text>
<!-- start -->
<g id="node1" class="node">
<title>start</title>
</g>
<!-- d61404bd&#45;7fb6&#45;4efe&#45;8915&#45;cbad5b78e811 -->
<g id="node3" class="node">
<title>d61404bd&#45;7fb6&#45;4efe&#45;8915&#45;cbad5b78e811</title>
<ellipse fill="#0ee832" stroke="black" cx="258" cy="-99.87" rx="173.48" ry="26.74"/>
<text text-anchor="middle" x="258" y="-103.67" font-family="Helvetica,sans-Serif" font-size="14.00">✓ Modify</text>
<text text-anchor="middle" x="258" y="-88.67" font-family="Helvetica,sans-Serif" font-size="14.00">.github/workflows/buf&#45;push.yaml</text>
</g>
<!-- start&#45;&gt;d61404bd&#45;7fb6&#45;4efe&#45;8915&#45;cbad5b78e811 -->
<g id="edge6" class="edge">
<title>start&#45;&gt;d61404bd&#45;7fb6&#45;4efe&#45;8915&#45;cbad5b78e811</title>
<path fill="none" stroke="black" d="M33.65,-99.87C36.96,-99.87 52.74,-99.87 74.52,-99.87"/>
<polygon fill="black" stroke="black" points="74.56,-103.37 84.56,-99.87 74.56,-96.37 74.56,-103.37"/>
<text text-anchor="middle" x="59.13" y="-106.67" font-family="Helvetica,sans-Serif" font-size="14.00">Start</text>
</g>
<!-- end -->
<g id="node2" class="node">
<title>end</title>
</g>
<!-- f523780a&#45;f7ec&#45;46f3&#45;905b&#45;6404f7f6ddbe -->
<g id="node4" class="node">
<title>f523780a&#45;f7ec&#45;46f3&#45;905b&#45;6404f7f6ddbe</title>
<ellipse fill="#0ee832" stroke="black" cx="668" cy="-99.87" rx="161.85" ry="26.74"/>
<text text-anchor="middle" x="668" y="-103.67" font-family="Helvetica,sans-Serif" font-size="14.00">✓ Modify</text>
<text text-anchor="middle" x="668" y="-88.67" font-family="Helvetica,sans-Serif" font-size="14.00">.github/workflows/nightly.yaml</text>
</g>
<!-- d61404bd&#45;7fb6&#45;4efe&#45;8915&#45;cbad5b78e811&#45;&gt;f523780a&#45;f7ec&#45;46f3&#45;905b&#45;6404f7f6ddbe -->
<g id="edge2" class="edge">
<title>d61404bd&#45;7fb6&#45;4efe&#45;8915&#45;cbad5b78e811&#45;&gt;f523780a&#45;f7ec&#45;46f3&#45;905b&#45;6404f7f6ddbe</title>
<path fill="none" stroke="black" d="M431.37,-99.87C452.78,-99.87 474.19,-99.87 495.61,-99.87"/>
<polygon fill="black" stroke="black" points="495.78,-103.37 505.78,-99.87 495.78,-96.37 495.78,-103.37"/>
</g>
<!-- cadf8d01&#45;1c75&#45;4a60&#45;b93e&#45;8242199b6e1d -->
<g id="node6" class="node">
<title>cadf8d01&#45;1c75&#45;4a60&#45;b93e&#45;8242199b6e1d</title>
<polygon fill="#0ee832" stroke="black" points="438,-36 0,-36 0,0 438,0 438,-36"/>
<text text-anchor="middle" x="219" y="-14.3" font-family="Helvetica,sans-Serif" font-size="14.00">✓ Run GitHub Actions for `.github/workflows/buf&#45;push.yaml`</text>
</g>
<!-- d61404bd&#45;7fb6&#45;4efe&#45;8915&#45;cbad5b78e811&#45;&gt;cadf8d01&#45;1c75&#45;4a60&#45;b93e&#45;8242199b6e1d -->
<g id="edge1" class="edge">
<title>d61404bd&#45;7fb6&#45;4efe&#45;8915&#45;cbad5b78e811&#45;&gt;cadf8d01&#45;1c75&#45;4a60&#45;b93e&#45;8242199b6e1d</title>
<path fill="none" stroke="black" stroke-dasharray="5,2" d="M245.23,-72.72C240.92,-63.9 236.12,-54.05 231.81,-45.23"/>
<polygon fill="black" stroke="black" points="234.91,-43.6 227.37,-36.15 228.62,-46.67 234.91,-43.6"/>
</g>
<!-- b35c1b9c&#45;bc0b&#45;4ecb&#45;b144&#45;04f8b95219ee -->
<g id="node5" class="node">
<title>b35c1b9c&#45;bc0b&#45;4ecb&#45;b144&#45;04f8b95219ee</title>
<ellipse fill="white" stroke="black" cx="1049" cy="-99.87" rx="139.1" ry="26.74"/>
<text text-anchor="middle" x="1049" y="-103.67" font-family="Helvetica,sans-Serif" font-size="14.00">▶ Modify</text>
<text text-anchor="middle" x="1049" y="-88.67" font-family="Helvetica,sans-Serif" font-size="14.00">.github/workflows/pr.yaml</text>
</g>
<!-- f523780a&#45;f7ec&#45;46f3&#45;905b&#45;6404f7f6ddbe&#45;&gt;b35c1b9c&#45;bc0b&#45;4ecb&#45;b144&#45;04f8b95219ee -->
<g id="edge4" class="edge">
<title>f523780a&#45;f7ec&#45;46f3&#45;905b&#45;6404f7f6ddbe&#45;&gt;b35c1b9c&#45;bc0b&#45;4ecb&#45;b144&#45;04f8b95219ee</title>
<path fill="none" stroke="black" d="M830.22,-99.87C853.18,-99.87 876.13,-99.87 899.08,-99.87"/>
<polygon fill="black" stroke="black" points="899.27,-103.37 909.27,-99.87 899.27,-96.37 899.27,-103.37"/>
</g>
<!-- 5d678f93&#45;7e58&#45;4c3d&#45;8a84&#45;39a1ae747042 -->
<g id="node7" class="node">
<title>5d678f93&#45;7e58&#45;4c3d&#45;8a84&#45;39a1ae747042</title>
<polygon fill="yellow" stroke="black" points="880,-36 456,-36 456,0 880,0 880,-36"/>
<text text-anchor="middle" x="668" y="-14.3" font-family="Helvetica,sans-Serif" font-size="14.00">⋯ Run GitHub Actions for `.github/workflows/nightly.yaml`</text>
</g>
<!-- f523780a&#45;f7ec&#45;46f3&#45;905b&#45;6404f7f6ddbe&#45;&gt;5d678f93&#45;7e58&#45;4c3d&#45;8a84&#45;39a1ae747042 -->
<g id="edge3" class="edge">
<title>f523780a&#45;f7ec&#45;46f3&#45;905b&#45;6404f7f6ddbe&#45;&gt;5d678f93&#45;7e58&#45;4c3d&#45;8a84&#45;39a1ae747042</title>
<path fill="none" stroke="black" stroke-dasharray="5,2" d="M668,-72.72C668,-64.27 668,-54.89 668,-46.36"/>
<polygon fill="black" stroke="black" points="671.5,-46.15 668,-36.15 664.5,-46.15 671.5,-46.15"/>
</g>
<!-- b35c1b9c&#45;bc0b&#45;4ecb&#45;b144&#45;04f8b95219ee&#45;&gt;end -->
<g id="edge7" class="edge">
<title>b35c1b9c&#45;bc0b&#45;4ecb&#45;b144&#45;04f8b95219ee&#45;&gt;end</title>
<path fill="none" stroke="black" d="M1188.49,-99.87C1207.95,-99.87 1224.82,-99.87 1235.16,-99.87"/>
<polygon fill="black" stroke="black" points="1235.35,-103.37 1245.35,-99.87 1235.35,-96.37 1235.35,-103.37"/>
<text text-anchor="middle" x="1216.9" y="-106.67" font-family="Helvetica,sans-Serif" font-size="14.00">Finish</text>
</g>
<!-- c885f468&#45;4fd5&#45;401e&#45;955a&#45;92119871b3de -->
<g id="node8" class="node">
<title>c885f468&#45;4fd5&#45;401e&#45;955a&#45;92119871b3de</title>
<polygon fill="white" stroke="black" points="1286,-36 898,-36 898,0 1286,0 1286,-36"/>
<text text-anchor="middle" x="1092" y="-14.3" font-family="Helvetica,sans-Serif" font-size="14.00">▶ Run GitHub Actions for `.github/workflows/pr.yaml`</text>
</g>
<!-- b35c1b9c&#45;bc0b&#45;4ecb&#45;b144&#45;04f8b95219ee&#45;&gt;c885f468&#45;4fd5&#45;401e&#45;955a&#45;92119871b3de -->
<g id="edge5" class="edge">
<title>b35c1b9c&#45;bc0b&#45;4ecb&#45;b144&#45;04f8b95219ee&#45;&gt;c885f468&#45;4fd5&#45;401e&#45;955a&#45;92119871b3de</title>
<path fill="none" stroke="black" stroke-dasharray="5,2" d="M1063.08,-72.72C1067.83,-63.9 1073.13,-54.05 1077.88,-45.23"/>
<polygon fill="black" stroke="black" points="1081.11,-46.61 1082.77,-36.15 1074.95,-43.29 1081.11,-46.61"/>
</g>
</g>
</svg>
