<?xml version="1.0" encoding="UTF-8" standalone="no"?>
<!DOCTYPE svg PUBLIC "-//W3C//DTD SVG 1.1//EN"
 "http://www.w3.org/Graphics/SVG/1.1/DTD/svg11.dtd">
<!-- Generated by graphviz version 2.43.0 (0)
 -->
<!-- Title: %3 Pages: 1 -->
<svg width="1354pt" height="238pt"
 viewBox="0.00 0.00 1354.00 237.74" xmlns="http://www.w3.org/2000/svg" xmlns:xlink="http://www.w3.org/1999/xlink">
<g id="graph0" class="graph" transform="scale(1 1) rotate(0) translate(36 201.74)">
<title>%3</title>
<polygon fill="dimgray" stroke="transparent" points="-36,36 -36,-201.74 1318,-201.74 1318,36 -36,36"/>
<text text-anchor="middle" x="641" y="-150.54" font-family="Helvetica,sans-Serif" font-size="14.00">Sweep&#39;s Plan &amp; Progress</text>
<!-- start -->
<g id="node1" class="node">
<title>start</title>
</g>
<!-- d61404bd&#45;7fb6&#45;4efe&#45;8915&#45;cbad5b78e811 -->
<g id="node3" class="node">
<title>d61404bd&#45;7fb6&#45;4efe&#45;8915&#45;cbad5b78e811</title>
<ellipse fill="#0ee832" stroke="black" cx="257" cy="-99.87" rx="173.48" ry="26.74"/>
<text text-anchor="middle" x="257" y="-103.67" font-family="Helvetica,sans-Serif" font-size="14.00">✓ Modify</text>
<text text-anchor="middle" x="257" y="-88.67" font-family="Helvetica,sans-Serif" font-size="14.00">.github/workflows/buf&#45;push.yaml</text>
</g>
<!-- start&#45;&gt;d61404bd&#45;7fb6&#45;4efe&#45;8915&#45;cbad5b78e811 -->
<g id="edge6" class="edge">
<title>start&#45;&gt;d61404bd&#45;7fb6&#45;4efe&#45;8915&#45;cbad5b78e811</title>
<path fill="none" stroke="black" d="M32.65,-99.87C35.96,-99.87 51.74,-99.87 73.52,-99.87"/>
<polygon fill="black" stroke="black" points="73.56,-103.37 83.56,-99.87 73.56,-96.37 73.56,-103.37"/>
<text text-anchor="middle" x="58.13" y="-106.67" font-family="Helvetica,sans-Serif" font-size="14.00">Start</text>
</g>
<!-- end -->
<g id="node2" class="node">
<title>end</title>
</g>
<!-- f523780a&#45;f7ec&#45;46f3&#45;905b&#45;6404f7f6ddbe -->
<g id="node4" class="node">
<title>f523780a&#45;f7ec&#45;46f3&#45;905b&#45;6404f7f6ddbe</title>
<ellipse fill="white" stroke="black" cx="666" cy="-99.87" rx="161.85" ry="26.74"/>
<text text-anchor="middle" x="666" y="-103.67" font-family="Helvetica,sans-Serif" font-size="14.00">▶ Modify</text>
<text text-anchor="middle" x="666" y="-88.67" font-family="Helvetica,sans-Serif" font-size="14.00">.github/workflows/nightly.yaml</text>
</g>
<!-- d61404bd&#45;7fb6&#45;4efe&#45;8915&#45;cbad5b78e811&#45;&gt;f523780a&#45;f7ec&#45;46f3&#45;905b&#45;6404f7f6ddbe -->
<g id="edge2" class="edge">
<title>d61404bd&#45;7fb6&#45;4efe&#45;8915&#45;cbad5b78e811&#45;&gt;f523780a&#45;f7ec&#45;46f3&#45;905b&#45;6404f7f6ddbe</title>
<path fill="none" stroke="black" d="M430.35,-99.87C451.54,-99.87 472.73,-99.87 493.92,-99.87"/>
<polygon fill="black" stroke="black" points="493.99,-103.37 503.99,-99.87 493.99,-96.37 493.99,-103.37"/>
</g>
<!-- cadf8d01&#45;1c75&#45;4a60&#45;b93e&#45;8242199b6e1d -->
<g id="node6" class="node">
<title>cadf8d01&#45;1c75&#45;4a60&#45;b93e&#45;8242199b6e1d</title>
<polygon fill="#0ee832" stroke="black" points="438,-36 0,-36 0,0 438,0 438,-36"/>
<text text-anchor="middle" x="219" y="-14.3" font-family="Helvetica,sans-Serif" font-size="14.00">✓ Run GitHub Actions for `.github/workflows/buf&#45;push.yaml`</text>
</g>
<!-- d61404bd&#45;7fb6&#45;4efe&#45;8915&#45;cbad5b78e811&#45;&gt;cadf8d01&#45;1c75&#45;4a60&#45;b93e&#45;8242199b6e1d -->
<g id="edge1" class="edge">
<title>d61404bd&#45;7fb6&#45;4efe&#45;8915&#45;cbad5b78e811&#45;&gt;cadf8d01&#45;1c75&#45;4a60&#45;b93e&#45;8242199b6e1d</title>
<path fill="none" stroke="black" stroke-dasharray="5,2" d="M244.56,-72.72C240.36,-63.9 235.68,-54.05 231.48,-45.23"/>
<polygon fill="black" stroke="black" points="234.61,-43.67 227.16,-36.15 228.29,-46.68 234.61,-43.67"/>
</g>
<!-- b35c1b9c&#45;bc0b&#45;4ecb&#45;b144&#45;04f8b95219ee -->
<g id="node5" class="node">
<title>b35c1b9c&#45;bc0b&#45;4ecb&#45;b144&#45;04f8b95219ee</title>
<ellipse fill="white" stroke="black" cx="1046" cy="-99.87" rx="139.1" ry="26.74"/>
<text text-anchor="middle" x="1046" y="-103.67" font-family="Helvetica,sans-Serif" font-size="14.00">▶ Modify</text>
<text text-anchor="middle" x="1046" y="-88.67" font-family="Helvetica,sans-Serif" font-size="14.00">.github/workflows/pr.yaml</text>
</g>
<!-- f523780a&#45;f7ec&#45;46f3&#45;905b&#45;6404f7f6ddbe&#45;&gt;b35c1b9c&#45;bc0b&#45;4ecb&#45;b144&#45;04f8b95219ee -->
<g id="edge4" class="edge">
<title>f523780a&#45;f7ec&#45;46f3&#45;905b&#45;6404f7f6ddbe&#45;&gt;b35c1b9c&#45;bc0b&#45;4ecb&#45;b144&#45;04f8b95219ee</title>
<path fill="none" stroke="black" d="M828.17,-99.87C850.9,-99.87 873.63,-99.87 896.36,-99.87"/>
<polygon fill="black" stroke="black" points="896.45,-103.37 906.45,-99.87 896.45,-96.37 896.45,-103.37"/>
</g>
<!-- 5d678f93&#45;7e58&#45;4c3d&#45;8a84&#45;39a1ae747042 -->
<g id="node7" class="node">
<title>5d678f93&#45;7e58&#45;4c3d&#45;8a84&#45;39a1ae747042</title>
<polygon fill="white" stroke="black" points="876,-36 456,-36 456,0 876,0 876,-36"/>
<text text-anchor="middle" x="666" y="-14.3" font-family="Helvetica,sans-Serif" font-size="14.00">▶ Run GitHub Actions for `.github/workflows/nightly.yaml`</text>
</g>
<!-- f523780a&#45;f7ec&#45;46f3&#45;905b&#45;6404f7f6ddbe&#45;&gt;5d678f93&#45;7e58&#45;4c3d&#45;8a84&#45;39a1ae747042 -->
<g id="edge3" class="edge">
<title>f523780a&#45;f7ec&#45;46f3&#45;905b&#45;6404f7f6ddbe&#45;&gt;5d678f93&#45;7e58&#45;4c3d&#45;8a84&#45;39a1ae747042</title>
<path fill="none" stroke="black" stroke-dasharray="5,2" d="M666,-72.72C666,-64.27 666,-54.89 666,-46.36"/>
<polygon fill="black" stroke="black" points="669.5,-46.15 666,-36.15 662.5,-46.15 669.5,-46.15"/>
</g>
<!-- b35c1b9c&#45;bc0b&#45;4ecb&#45;b144&#45;04f8b95219ee&#45;&gt;end -->
<g id="edge7" class="edge">
<title>b35c1b9c&#45;bc0b&#45;4ecb&#45;b144&#45;04f8b95219ee&#45;&gt;end</title>
<path fill="none" stroke="black" d="M1185.49,-99.87C1204.95,-99.87 1221.82,-99.87 1232.16,-99.87"/>
<polygon fill="black" stroke="black" points="1232.35,-103.37 1242.35,-99.87 1232.35,-96.37 1232.35,-103.37"/>
<text text-anchor="middle" x="1213.9" y="-106.67" font-family="Helvetica,sans-Serif" font-size="14.00">Finish</text>
</g>
<!-- c885f468&#45;4fd5&#45;401e&#45;955a&#45;92119871b3de -->
<g id="node8" class="node">
<title>c885f468&#45;4fd5&#45;401e&#45;955a&#45;92119871b3de</title>
<polygon fill="white" stroke="black" points="1282,-36 894,-36 894,0 1282,0 1282,-36"/>
<text text-anchor="middle" x="1088" y="-14.3" font-family="Helvetica,sans-Serif" font-size="14.00">▶ Run GitHub Actions for `.github/workflows/pr.yaml`</text>
</g>
<!-- b35c1b9c&#45;bc0b&#45;4ecb&#45;b144&#45;04f8b95219ee&#45;&gt;c885f468&#45;4fd5&#45;401e&#45;955a&#45;92119871b3de -->
<g id="edge5" class="edge">
<title>b35c1b9c&#45;bc0b&#45;4ecb&#45;b144&#45;04f8b95219ee&#45;&gt;c885f468&#45;4fd5&#45;401e&#45;955a&#45;92119871b3de</title>
<path fill="none" stroke="black" stroke-dasharray="5,2" d="M1059.75,-72.72C1064.39,-63.9 1069.57,-54.05 1074.21,-45.23"/>
<polygon fill="black" stroke="black" points="1077.43,-46.63 1078.98,-36.15 1071.23,-43.37 1077.43,-46.63"/>
</g>
</g>
</svg>
